# Blender 5.0.1
# www.blender.org
mtllib WoodenLowTable.mtl
o Wooden_Low_Table
v 0.750000 0.000000 0.390000
v 0.750000 0.470000 0.390000
v 0.750000 0.000000 0.270000
v 0.750000 0.470000 0.270000
v 0.790000 0.000000 0.390000
v 0.790000 0.470000 0.390000
v 0.790000 0.000000 0.270000
v 0.790000 0.470000 0.270000
v -0.750000 0.000000 0.390000
v -0.750000 0.470000 0.390000
v -0.750000 0.000000 0.270000
v -0.750000 0.470000 0.270000
v -0.790000 0.000000 0.390000
v -0.790000 0.470000 0.390000
v -0.790000 0.000000 0.270000
v -0.790000 0.470000 0.270000
v 0.750000 0.000000 -0.390000
v 0.750000 0.470000 -0.390000
v 0.750000 0.000000 -0.270000
v 0.750000 0.470000 -0.270000
v 0.790000 0.000000 -0.390000
v 0.790000 0.470000 -0.390000
v 0.790000 0.000000 -0.270000
v 0.790000 0.470000 -0.270000
v -0.750000 0.000000 -0.390000
v -0.750000 0.470000 -0.390000
v -0.750000 0.000000 -0.270000
v -0.750000 0.470000 -0.270000
v -0.790000 0.000000 -0.390000
v -0.790000 0.470000 -0.390000
v -0.790000 0.000000 -0.270000
v -0.790000 0.470000 -0.270000
v 0.750000 0.420000 -0.390000
v 0.750000 0.420000 0.390000
v -0.750000 0.420000 -0.390000
v -0.750000 0.420000 0.390000
v 0.800000 0.500000 -0.400000
v 0.800000 0.500000 0.400000
v -0.800000 0.500000 -0.400000
v -0.800000 0.500000 0.400000
v -0.750040 0.452032 -0.390000
v -0.800000 0.454915 -0.400000
v -0.800000 0.454915 0.400000
v -0.750040 0.452032 0.390000
v 0.800000 0.454915 -0.400000
v 0.750040 0.452032 -0.390000
v 0.750040 0.452032 0.390000
v 0.800000 0.454915 0.400000
v -0.750000 0.067000 0.360000
v -0.750000 0.130000 0.360000
v -0.750000 0.067000 -0.360000
v -0.750000 0.130000 -0.360000
v 0.750000 0.067000 0.360000
v 0.750000 0.130000 0.360000
v 0.750000 0.067000 -0.360000
v 0.750000 0.130000 -0.360000
v 0.730000 0.060000 0.382000
v 0.730000 0.082000 0.382000
v 0.730000 0.060000 -0.382000
v 0.730000 0.082000 -0.382000
v 0.755000 0.060000 0.382000
v 0.751000 0.082000 0.382000
v 0.755000 0.060000 -0.382000
v 0.751000 0.082000 -0.382000
v -0.730000 0.060000 0.382000
v -0.730000 0.082000 0.382000
v -0.730000 0.060000 -0.382000
v -0.730000 0.082000 -0.382000
v -0.755000 0.060000 0.382000
v -0.751000 0.082000 0.382000
v -0.755000 0.060000 -0.382000
v -0.751000 0.082000 -0.382000
vn -1.0000 -0.0000 -0.0000
vn -0.0000 -0.0000 -1.0000
vn 1.0000 -0.0000 -0.0000
vn -0.0000 -0.0000 1.0000
vn -0.0000 -1.0000 -0.0000
vn -0.0000 1.0000 -0.0000
vn -0.0000 -0.9609 0.2770
vn -0.0000 -0.9609 -0.2770
vn 0.0576 -0.9983 -0.0000
vn -0.0576 -0.9983 -0.0000
vn -1.0000 -0.0012 -0.0000
vn 1.0000 -0.0012 -0.0000
vn 0.9839 0.1789 -0.0000
vn -0.9839 0.1789 -0.0000
vt 1.000000 0.384080
vt 0.640501 0.384080
vt 0.640501 0.292293
vt 1.000000 0.292293
vt 1.000000 0.968903
vt 0.640501 0.968903
vt 0.640501 0.938308
vt 1.000000 0.938308
vt 1.000000 0.476368
vt 0.640501 0.476368
vt 0.640501 0.384581
vt 1.000000 0.384581
vt 1.000000 0.031922
vt 0.640501 0.031922
vt 0.640501 0.000000
vt 1.000000 0.000000
vt 0.556757 0.456442
vt 0.579090 0.456442
vt 0.579090 0.538005
vt 0.556757 0.538005
vt 1.000000 0.476869
vt 1.000000 0.568656
vt 0.640501 0.568656
vt 0.640501 0.476869
vt 1.000000 0.164073
vt 1.000000 0.195995
vt 0.640501 0.195995
vt 0.640501 0.164073
vt 1.000000 0.846020
vt 1.000000 0.937807
vt 0.640501 0.937807
vt 0.640501 0.846020
vt 1.000000 0.032444
vt 1.000000 0.064366
vt 0.640501 0.064366
vt 0.640501 0.032444
vt 0.579153 0.538316
vt 0.579153 0.619879
vt 0.556763 0.619879
vt 0.556763 0.538316
vt 1.000000 0.198755
vt 1.000000 0.290542
vt 0.640501 0.290542
vt 0.640501 0.198755
vt 1.000000 0.066740
vt 1.000000 0.098662
vt 0.640501 0.098662
vt 0.640501 0.066740
vt 1.000000 0.569156
vt 1.000000 0.660943
vt 0.640501 0.660943
vt 0.640501 0.569156
vt 1.000000 0.099184
vt 1.000000 0.131106
vt 0.640501 0.131106
vt 0.640501 0.099184
vt 0.579184 0.619879
vt 0.579184 0.538316
vt 0.601574 0.538316
vt 0.601574 0.619879
vt 1.000000 0.753231
vt 0.640501 0.753231
vt 0.640501 0.661444
vt 1.000000 0.661444
vt 1.000000 0.163550
vt 0.640501 0.163550
vt 0.640501 0.131629
vt 1.000000 0.131629
vt 1.000000 0.845519
vt 0.640501 0.845519
vt 0.640501 0.753732
vt 1.000000 0.753732
vt 1.000000 1.000000
vt 0.640501 1.000000
vt 0.640501 0.969404
vt 1.000000 0.969404
vt 0.601511 0.538005
vt 0.579121 0.538005
vt 0.579121 0.456442
vt 0.601511 0.456442
vt 0.238111 1.000000
vt 0.000000 1.000000
vt 0.000000 0.644130
vt 0.238111 0.644130
vt 0.243173 0.000000
vt 0.553391 0.000000
vt 0.553391 0.620437
vt 0.243173 0.620437
vt 0.637317 0.443626
vt 0.637317 0.228428
vt 0.638363 0.221460
vt 0.638363 0.450593
vt 0.556472 0.451154
vt 0.556471 0.220900
vt 0.557499 0.228069
vt 0.557499 0.443985
vt 0.559062 0.441619
vt 0.635750 0.441440
vt 0.558616 0.216975
vt 0.556463 0.220005
vt 0.556463 0.000000
vt 0.558616 0.003031
vt 0.559062 0.230435
vt 0.636050 0.216624
vt 0.638210 0.219656
vt 0.636050 0.003381
vt 0.638210 0.000349
vt 0.635750 0.230614
vt 0.633732 1.000000
vt 0.618548 1.000000
vt 0.618548 0.826473
vt 0.633732 0.826473
vt 0.633654 0.622341
vt 0.633654 0.637525
vt 0.241851 0.637525
vt 0.241851 0.622341
vt 0.241851 0.826473
vt 0.257034 0.826473
vt 0.257034 1.000000
vt 0.241851 1.000000
vt 0.241851 0.652828
vt 0.241851 0.637644
vt 0.633654 0.637644
vt 0.633654 0.652828
vt 0.633654 0.826354
vt 0.241851 0.826354
vt 0.085639 0.642563
vt 0.056850 0.642563
vt 0.056850 0.000107
vt 0.085639 0.000107
vt 0.604031 0.496540
vt 0.639643 0.496540
vt 0.639643 0.462547
vt 0.604031 0.456072
vt 0.000107 0.000107
vt 0.029369 0.000107
vt 0.029369 0.642563
vt 0.000107 0.642563
vt 0.604031 0.579090
vt 0.639643 0.585564
vt 0.639643 0.619558
vt 0.604031 0.619558
vt 0.171599 0.000107
vt 0.204315 0.000107
vt 0.204315 0.642562
vt 0.171599 0.642562
vt 0.085853 0.642563
vt 0.085853 0.000107
vt 0.114643 0.000107
vt 0.114643 0.642563
vt 0.604031 0.578825
vt 0.604031 0.538357
vt 0.639643 0.544832
vt 0.639643 0.578825
vt 0.171385 0.000107
vt 0.171385 0.642562
vt 0.142124 0.642562
vt 0.142124 0.000107
vt 0.604031 0.496805
vt 0.604031 0.537272
vt 0.639643 0.537272
vt 0.639643 0.503280
vt 0.237244 0.000107
vt 0.237244 0.642562
vt 0.204529 0.642562
vt 0.204529 0.000107
s 0
usemtl Wooden_Low_Table
f 1/1/1 2/2/1 4/3/1 3/4/1
f 3/5/2 4/6/2 8/7/2 7/8/2
f 7/9/3 8/10/3 6/11/3 5/12/3
f 5/13/4 6/14/4 2/15/4 1/16/4
f 3/17/5 7/18/5 5/19/5 1/20/5
f 9/21/3 11/22/3 12/23/3 10/24/3
f 11/25/2 15/26/2 16/27/2 12/28/2
f 15/29/1 13/30/1 14/31/1 16/32/1
f 13/33/4 9/34/4 10/35/4 14/36/4
f 11/37/5 9/38/5 13/39/5 15/40/5
f 17/41/1 19/42/1 20/43/1 18/44/1
f 19/45/4 23/46/4 24/47/4 20/48/4
f 23/49/3 21/50/3 22/51/3 24/52/3
f 21/53/2 17/54/2 18/55/2 22/56/2
f 19/57/5 17/58/5 21/59/5 23/60/5
f 25/61/3 26/62/3 28/63/3 27/64/3
f 27/65/4 28/66/4 32/67/4 31/68/4
f 31/69/1 32/70/1 30/71/1 29/72/1
f 29/73/2 30/74/2 26/75/2 25/76/2
f 27/77/5 31/78/5 29/79/5 25/80/5
f 33/81/5 34/82/5 36/83/5 35/84/5
f 39/85/6 40/86/6 38/87/6 37/88/6
f 44/89/7 47/90/7 48/91/7 43/92/7
f 42/93/8 45/94/8 46/95/8 41/96/8
f 47/90/9 46/95/9 45/94/9 48/91/9
f 43/92/10 42/93/10 41/96/10 44/89/10
f 35/97/11 36/98/11 44/89/11 41/96/11
f 42/99/2 39/100/2 37/101/2 45/102/2
f 35/97/2 41/96/2 46/95/2 33/103/2
f 42/99/1 43/104/1 40/105/1 39/100/1
f 40/105/4 43/104/4 48/106/4 38/107/4
f 44/89/4 36/98/4 34/108/4 47/90/4
f 37/101/3 38/107/3 48/106/3 45/102/3
f 46/95/12 47/90/12 34/108/12 33/103/12
f 49/109/1 50/110/1 52/111/1 51/112/1
f 51/113/2 52/114/2 56/115/2 55/116/2
f 55/117/3 56/118/3 54/119/3 53/120/3
f 53/121/4 54/122/4 50/123/4 49/124/4
f 51/125/5 55/126/5 53/121/5 49/124/5
f 56/118/6 52/111/6 50/110/6 54/119/6
f 57/127/1 58/128/1 60/129/1 59/130/1
f 59/131/2 60/132/2 64/133/2 63/134/2
f 63/135/13 64/136/13 62/137/13 61/138/13
f 61/139/4 62/140/4 58/141/4 57/142/4
f 59/143/5 63/144/5 61/145/5 57/146/5
f 64/136/6 60/129/6 58/128/6 62/137/6
f 65/147/3 67/148/3 68/149/3 66/150/3
f 67/151/2 71/152/2 72/153/2 68/154/2
f 71/155/14 69/156/14 70/157/14 72/158/14
f 69/159/4 65/160/4 66/161/4 70/162/4
f 67/163/5 65/164/5 69/165/5 71/166/5
f 72/158/6 70/157/6 66/150/6 68/149/6
